# Blender v2.82 (sub 7) OBJ File: 'DeluxDial.blend'
# www.blender.org
mtllib DeluxeDial.mtl
o Cylinder
v -0.000000 -0.070500 -0.972297
v -0.019494 -0.048180 -0.998080
v 0.019494 -0.048180 -0.998080
v -0.000000 0.070500 -0.972297
v 0.019494 0.048180 -0.998080
v -0.019494 0.048180 -0.998080
v 0.189686 -0.070500 -0.953615
v 0.175596 -0.048180 -0.982705
v 0.213836 -0.048180 -0.975099
v 0.189686 0.070500 -0.953615
v 0.213836 0.048180 -0.975099
v 0.175596 0.048180 -0.982705
v 0.372082 -0.070500 -0.898286
v 0.363938 -0.048180 -0.929566
v 0.399959 -0.048180 -0.914645
v 0.372082 0.070500 -0.898286
v 0.399959 0.048180 -0.914645
v 0.363938 0.048180 -0.929566
v 0.540179 -0.070500 -0.808436
v 0.538294 -0.048180 -0.840704
v 0.570713 -0.048180 -0.819043
v 0.540179 0.070500 -0.808436
v 0.570713 0.048180 -0.819043
v 0.538294 0.048180 -0.840704
v 0.687518 -0.070500 -0.687518
v 0.691964 -0.048180 -0.719534
v 0.719534 -0.048180 -0.691964
v 0.687518 0.070500 -0.687518
v 0.719534 0.048180 -0.691964
v 0.691964 0.048180 -0.719534
v 0.808436 -0.070500 -0.540179
v 0.819043 -0.048180 -0.570713
v 0.840704 -0.048180 -0.538294
v 0.808436 0.070500 -0.540179
v 0.840704 0.048180 -0.538294
v 0.819043 0.048180 -0.570713
v 0.898286 -0.070500 -0.372082
v 0.914645 -0.048180 -0.399959
v 0.929566 -0.048180 -0.363938
v 0.898286 0.070500 -0.372082
v 0.929566 0.048180 -0.363938
v 0.914645 0.048180 -0.399959
v 0.953615 -0.070500 -0.189686
v 0.975099 -0.048180 -0.213836
v 0.982705 -0.048180 -0.175596
v 0.953615 0.070500 -0.189686
v 0.982705 0.048180 -0.175596
v 0.975099 0.048180 -0.213836
v 0.972297 -0.070500 -0.000000
v 0.998080 -0.048180 -0.019495
v 0.998080 -0.048180 0.019494
v 0.972297 0.070500 -0.000000
v 0.998080 0.048180 0.019494
v 0.998080 0.048180 -0.019495
v 0.953615 -0.070500 0.189686
v 0.982705 -0.048180 0.175596
v 0.975099 -0.048180 0.213836
v 0.953615 0.070500 0.189686
v 0.975099 0.048180 0.213836
v 0.982705 0.048180 0.175596
v 0.898286 -0.070500 0.372082
v 0.929566 -0.048180 0.363938
v 0.914645 -0.048180 0.399959
v 0.898286 0.070500 0.372082
v 0.914645 0.048180 0.399959
v 0.929566 0.048180 0.363938
v 0.808436 -0.070500 0.540179
v 0.840704 -0.048180 0.538294
v 0.819043 -0.048180 0.570713
v 0.808436 0.070500 0.540179
v 0.819043 0.048180 0.570713
v 0.840704 0.048180 0.538294
v 0.687518 -0.070500 0.687518
v 0.719534 -0.048180 0.691964
v 0.691964 -0.048180 0.719534
v 0.687518 0.070500 0.687518
v 0.691964 0.048180 0.719534
v 0.719534 0.048180 0.691964
v 0.540179 -0.070500 0.808436
v 0.570713 -0.048180 0.819043
v 0.538294 -0.048180 0.840704
v 0.540179 0.070500 0.808436
v 0.538294 0.048180 0.840704
v 0.570713 0.048180 0.819043
v 0.372082 -0.070500 0.898286
v 0.399959 -0.048180 0.914646
v 0.363938 -0.048180 0.929566
v 0.372082 0.070500 0.898286
v 0.363938 0.048180 0.929566
v 0.399959 0.048180 0.914646
v 0.189685 -0.070500 0.953615
v 0.213835 -0.048180 0.975099
v 0.175596 -0.048180 0.982705
v 0.189685 0.070500 0.953615
v 0.175596 0.048180 0.982705
v 0.213835 0.048180 0.975099
v -0.000000 -0.070500 0.972297
v 0.019494 -0.048180 0.998080
v -0.019495 -0.048180 0.998080
v -0.000000 0.070500 0.972297
v -0.019495 0.048180 0.998080
v 0.019494 0.048180 0.998080
v -0.189686 -0.070500 0.953615
v -0.175596 -0.048180 0.982705
v -0.213836 -0.048180 0.975099
v -0.189686 0.070500 0.953615
v -0.213836 0.048180 0.975099
v -0.175596 0.048180 0.982705
v -0.372082 -0.070500 0.898285
v -0.363939 -0.048180 0.929566
v -0.399960 -0.048180 0.914645
v -0.372082 0.070500 0.898285
v -0.399960 0.048180 0.914645
v -0.363939 0.048180 0.929566
v -0.540180 -0.070500 0.808435
v -0.538295 -0.048180 0.840703
v -0.570713 -0.048180 0.819042
v -0.540180 0.070500 0.808435
v -0.570713 0.048180 0.819042
v -0.538295 0.048180 0.840703
v -0.687518 -0.070500 0.687518
v -0.691965 -0.048180 0.719533
v -0.719534 -0.048180 0.691964
v -0.687518 0.070500 0.687518
v -0.719534 0.048180 0.691964
v -0.691965 0.048180 0.719533
v -0.808436 -0.070500 0.540179
v -0.819043 -0.048180 0.570712
v -0.840704 -0.048180 0.538294
v -0.808436 0.070500 0.540179
v -0.840704 0.048180 0.538294
v -0.819043 0.048180 0.570712
v -0.898286 -0.070500 0.372081
v -0.914646 -0.048180 0.399958
v -0.929566 -0.048180 0.363937
v -0.898286 0.070500 0.372081
v -0.929566 0.048180 0.363937
v -0.914646 0.048180 0.399958
v -0.953615 -0.070500 0.189685
v -0.975099 -0.048180 0.213835
v -0.982705 -0.048180 0.175595
v -0.953615 0.070500 0.189685
v -0.982705 0.048180 0.175595
v -0.975099 0.048180 0.213835
v -0.972297 -0.070500 -0.000001
v -0.998080 -0.048180 0.019494
v -0.998080 -0.048180 -0.019495
v -0.972297 0.070500 -0.000001
v -0.998080 0.048180 -0.019495
v -0.998080 0.048180 0.019494
v -0.953615 -0.070500 -0.189687
v -0.982705 -0.048180 -0.175597
v -0.975099 -0.048180 -0.213837
v -0.953615 0.070500 -0.189687
v -0.975099 0.048180 -0.213837
v -0.982705 0.048180 -0.175597
v -0.898285 -0.070500 -0.372083
v -0.929565 -0.048180 -0.363939
v -0.914645 -0.048180 -0.399960
v -0.898285 0.070500 -0.372083
v -0.914645 0.048180 -0.399960
v -0.929565 0.048180 -0.363939
v -0.808435 -0.070500 -0.540181
v -0.840703 -0.048180 -0.538296
v -0.819042 -0.048180 -0.570714
v -0.808435 0.070500 -0.540181
v -0.819042 0.048180 -0.570714
v -0.840703 0.048180 -0.538296
v -0.687517 -0.070500 -0.687519
v -0.719533 -0.048180 -0.691965
v -0.691963 -0.048180 -0.719535
v -0.687517 0.070500 -0.687519
v -0.691963 0.048180 -0.719535
v -0.719533 0.048180 -0.691965
v -0.540178 -0.070500 -0.808436
v -0.570711 -0.048180 -0.819043
v -0.538293 -0.048180 -0.840704
v -0.540178 0.070500 -0.808436
v -0.538293 0.048180 -0.840704
v -0.570711 0.048180 -0.819043
v -0.372081 -0.070500 -0.898286
v -0.399958 -0.048180 -0.914646
v -0.363937 -0.048180 -0.929566
v -0.372081 0.070500 -0.898286
v -0.363937 0.048180 -0.929566
v -0.399958 0.048180 -0.914646
v -0.189684 -0.070500 -0.953615
v -0.213834 -0.048180 -0.975099
v -0.175594 -0.048180 -0.982706
v -0.189684 0.070500 -0.953615
v -0.175594 0.048180 -0.982706
v -0.213834 0.048180 -0.975099
v 0.000000 -0.070500 -1.692711
v -0.893038 -0.035382 -1.709990
v -0.832432 -0.070500 -1.692711
v -0.893038 -0.035382 -1.675432
v -0.893038 0.036351 -1.709990
v -0.893038 0.036351 -1.675432
v -0.832432 0.070500 -1.692711
v -0.638372 -0.035382 -2.274791
v -0.608627 -0.035382 -2.292069
v -0.582673 -0.070500 -2.246534
v -0.638372 0.036351 -2.274791
v -0.582673 0.070500 -2.246534
v -0.608627 0.036351 -2.292069
v 0.608628 -0.035382 -2.292070
v 0.638372 -0.035382 -2.274791
v 0.582673 -0.070500 -2.246534
v 0.608628 0.036351 -2.292070
v 0.582673 0.070500 -2.246534
v 0.638372 0.036351 -2.274791
v 0.893038 -0.035382 -1.709990
v 0.893038 -0.035382 -1.675432
v 0.832432 -0.070500 -1.692711
v 0.893038 0.036351 -1.709990
v 0.832432 0.070500 -1.692711
v 0.893038 0.036351 -1.675432
v 0.638372 -0.035382 -1.110632
v 0.608628 -0.035382 -1.093353
v 0.582673 -0.070500 -1.138888
v 0.638372 0.036351 -1.110632
v 0.582673 0.070500 -1.138888
v 0.608628 0.036351 -1.093353
v -0.608627 -0.035382 -1.093353
v -0.638372 -0.035382 -1.110632
v -0.582673 -0.070500 -1.138888
v -0.608627 0.036351 -1.093353
v -0.582673 0.070500 -1.138888
v -0.638372 0.036351 -1.110632
v -0.554429 0.086340 -1.165734
v -0.550066 0.099467 -1.187992
v -0.771760 0.099467 -1.679584
v -0.771760 0.099467 -1.705838
v -0.792081 0.086340 -1.692711
v 0.792081 0.086340 -1.692711
v 0.771760 0.099467 -1.705838
v 0.771760 0.099467 -1.679584
v 0.550066 0.099467 -1.187992
v 0.554429 0.086340 -1.165734
v 0.554429 0.086340 -2.219688
v 0.550066 0.099467 -2.197431
v -0.550066 0.099467 -2.197430
v -0.554429 0.086340 -2.219688
v -0.507364 0.099467 -1.228580
v -0.491567 0.086340 -1.225483
v -0.702274 0.086340 -1.692711
v -0.710754 0.099467 -1.705838
v -0.710754 0.099467 -1.679584
v 0.710754 0.099467 -1.679584
v 0.710754 0.099467 -1.705838
v 0.702274 0.086340 -1.692711
v 0.491567 0.086340 -1.225483
v 0.507364 0.099467 -1.228580
v 0.507364 0.099467 -2.156843
v 0.491567 0.086340 -2.159939
v -0.491567 0.086340 -2.159939
v -0.507364 0.099467 -2.156842
v -0.285550 0.043350 -2.704651
v -0.285550 -0.043350 -2.704651
v 0.285550 0.043350 -2.704651
v 0.285550 -0.043350 -2.704651
v 0.285550 0.043350 -2.335573
v 0.285550 -0.043350 -2.335573
v -0.285550 0.043350 -2.335573
v -0.285550 -0.043350 -2.335573
v 0.330831 -0.043350 -2.414002
v -0.330831 0.043350 -2.414002
v -0.330831 -0.043350 -2.414002
v 0.330831 0.043350 -2.414002
v -0.330831 0.043350 -2.626222
v -0.330831 -0.043350 -2.626222
v 0.330831 -0.043350 -2.626222
v 0.330831 0.043350 -2.626222
v -0.531113 -0.043350 -2.626222
v -0.476375 -0.043350 -2.520112
v -0.476375 0.043350 -2.520112
v 0.476375 -0.043350 -2.520112
v 0.476375 0.043350 -2.520112
v 0.531113 -0.043350 -2.414002
v -0.531113 0.043350 -2.414002
v 0.531113 0.043350 -2.626222
v -0.531113 -0.043350 -2.414002
v 0.531113 0.043350 -2.414002
v -0.531113 0.043350 -2.626222
v 0.531113 -0.043350 -2.626222
v -0.792081 0.070834 -1.692711
v -0.805978 0.070500 -1.692711
v -0.554429 0.070834 -2.219688
v -0.554693 0.070500 -2.236066
v 0.554685 0.068840 -2.236066
v 0.554429 0.070834 -2.219688
v 0.811774 0.070500 -1.692711
v 0.792081 0.070834 -1.692711
v 0.554429 0.070834 -1.165734
v 0.559052 0.070500 -1.146244
v -0.554693 0.070500 -1.149380
v -0.554429 0.070834 -1.165734
v -0.686048 0.070500 -1.692711
v -0.702274 0.070834 -1.692711
v -0.478180 0.070500 -2.161056
v -0.491567 0.070834 -2.159939
v 0.491567 0.070834 -2.159939
v 0.478181 0.070500 -2.161056
v 0.702274 0.070834 -1.692711
v 0.686048 0.070500 -1.692711
v 0.478181 0.070500 -1.224367
v 0.491567 0.070834 -1.225483
v -0.491567 0.070834 -1.225483
v -0.478180 0.070500 -1.224367
v -0.556002 0.060387 -1.157709
v -0.554429 0.060721 -1.165734
v -0.792081 0.060721 -1.692711
v -0.797273 0.060387 -1.692711
v 0.797273 0.060387 -1.692711
v 0.792081 0.060721 -1.692711
v 0.554429 0.060721 -1.165734
v 0.556002 0.060387 -1.157709
v 0.556002 0.060387 -2.227714
v 0.554429 0.060721 -2.219688
v -0.554429 0.060721 -2.219688
v -0.556002 0.060387 -2.227714
v -0.491567 0.060721 -1.225483
v -0.485871 0.060387 -1.224367
v -0.697082 0.060387 -1.692711
v -0.702274 0.060721 -1.692711
v 0.702274 0.060721 -1.692711
v 0.697082 0.060387 -1.692711
v 0.485871 0.060387 -1.224367
v 0.491567 0.060721 -1.225483
v 0.491567 0.060721 -2.159939
v 0.485871 0.060387 -2.161056
v -0.485871 0.060387 -2.161056
v -0.491567 0.060721 -2.159939
vt 0.937163 0.473905
vt 0.933942 0.449849
vt 0.937163 0.449849
vt 0.834255 0.449849
vt 0.837963 0.473905
vt 0.834255 0.473905
vt 0.838907 0.449849
vt 0.842763 0.473905
vt 0.838907 0.473905
vt 0.843726 0.449849
vt 0.847581 0.473905
vt 0.843726 0.473905
vt 0.848526 0.449849
vt 0.852233 0.473905
vt 0.848526 0.473905
vt 0.853123 0.449849
vt 0.856539 0.473905
vt 0.853123 0.473905
vt 0.857340 0.449849
vt 0.860335 0.473905
vt 0.857340 0.473905
vt 0.861016 0.449849
vt 0.863473 0.473905
vt 0.861016 0.473905
vt 0.932517 0.473905
vt 0.929522 0.449849
vt 0.932517 0.449849
vt 0.928721 0.473905
vt 0.925305 0.449849
vt 0.928721 0.449849
vt 0.924415 0.473905
vt 0.920708 0.449849
vt 0.924415 0.449849
vt 0.919763 0.473905
vt 0.915908 0.449849
vt 0.919763 0.449849
vt 0.914945 0.473905
vt 0.911089 0.449849
vt 0.914945 0.449849
vt 0.910145 0.473905
vt 0.906437 0.449849
vt 0.910145 0.449849
vt 0.905548 0.473905
vt 0.902131 0.449849
vt 0.905548 0.449849
vt 0.901330 0.473905
vt 0.898336 0.449849
vt 0.901330 0.449849
vt 0.897655 0.473905
vt 0.894660 0.449849
vt 0.897655 0.449849
vt 0.893859 0.473905
vt 0.890442 0.449849
vt 0.893859 0.449849
vt 0.889553 0.473905
vt 0.885845 0.449849
vt 0.889553 0.449849
vt 0.884901 0.473905
vt 0.881046 0.449849
vt 0.884901 0.449849
vt 0.880083 0.473905
vt 0.876227 0.449849
vt 0.880083 0.449849
vt 0.875283 0.473905
vt 0.871575 0.449849
vt 0.875283 0.449849
vt 0.870686 0.473905
vt 0.867269 0.449849
vt 0.870686 0.449849
vt 0.866468 0.473905
vt 0.863473 0.449849
vt 0.866468 0.449849
vt 0.964475 0.473905
vt 0.961254 0.449849
vt 0.964475 0.449849
vt 0.960404 0.473905
vt 0.956825 0.449849
vt 0.960404 0.449849
vt 0.955904 0.473905
vt 0.952104 0.449849
vt 0.955904 0.449849
vt 0.951145 0.473905
vt 0.947271 0.449849
vt 0.951145 0.449849
vt 0.946313 0.473905
vt 0.942513 0.449849
vt 0.946313 0.449849
vt 0.941592 0.473905
vt 0.938013 0.449849
vt 0.941592 0.449849
vt 0.829949 0.449849
vt 0.833366 0.473905
vt 0.829949 0.473905
vt 0.662114 0.947116
vt 0.106195 0.831440
vt 0.337886 0.553887
vt 0.826154 0.449849
vt 0.829148 0.473905
vt 0.826154 0.473905
vt 0.933974 0.444233
vt 0.933198 0.449849
vt 0.933974 0.479520
vt 0.933198 0.473905
vt 0.933942 0.473905
vt 0.829903 0.479520
vt 0.829902 0.444233
vt 0.829148 0.449849
vt 0.834054 0.479520
vt 0.834054 0.444233
vt 0.833366 0.449849
vt 0.838559 0.479520
vt 0.838559 0.444233
vt 0.837963 0.449849
vt 0.843244 0.479520
vt 0.843244 0.444233
vt 0.842763 0.449849
vt 0.847929 0.479520
vt 0.847929 0.444233
vt 0.847581 0.449849
vt 0.852434 0.479520
vt 0.852434 0.444233
vt 0.852233 0.449849
vt 0.856586 0.479520
vt 0.856586 0.444233
vt 0.856539 0.449849
vt 0.860225 0.479520
vt 0.860225 0.444233
vt 0.860335 0.449849
vt 0.932407 0.444233
vt 0.933198 0.449849
vt 0.932407 0.479520
vt 0.933198 0.473905
vt 0.928768 0.444233
vt 0.928768 0.479520
vt 0.929522 0.473905
vt 0.924616 0.444233
vt 0.924616 0.479520
vt 0.925305 0.473905
vt 0.920111 0.444233
vt 0.920111 0.479520
vt 0.920708 0.473905
vt 0.915426 0.444233
vt 0.915426 0.479520
vt 0.915908 0.473905
vt 0.910741 0.444233
vt 0.910741 0.479520
vt 0.911089 0.473905
vt 0.906236 0.444233
vt 0.906236 0.479520
vt 0.906437 0.473905
vt 0.902084 0.444233
vt 0.902084 0.479520
vt 0.902131 0.473905
vt 0.897545 0.444233
vt 0.897545 0.479520
vt 0.898336 0.473905
vt 0.893906 0.444233
vt 0.893906 0.479520
vt 0.894660 0.473905
vt 0.889754 0.444233
vt 0.889754 0.479520
vt 0.890442 0.473905
vt 0.885249 0.444233
vt 0.885249 0.479520
vt 0.885845 0.473905
vt 0.880564 0.444233
vt 0.880564 0.479520
vt 0.881046 0.473905
vt 0.875879 0.444233
vt 0.875879 0.479520
vt 0.876227 0.473905
vt 0.871374 0.444233
vt 0.871374 0.479520
vt 0.871575 0.473905
vt 0.867222 0.444233
vt 0.867222 0.479520
vt 0.867269 0.473905
vt 0.964443 0.444233
vt 0.965219 0.449849
vt 0.964443 0.479520
vt 0.965219 0.473905
vt 0.960529 0.444233
vt 0.960529 0.479520
vt 0.961254 0.473905
vt 0.956179 0.444233
vt 0.956179 0.479520
vt 0.956825 0.473905
vt 0.951562 0.444233
vt 0.951562 0.479520
vt 0.952104 0.473905
vt 0.946855 0.444233
vt 0.946855 0.479520
vt 0.947271 0.473905
vt 0.942237 0.444233
vt 0.942237 0.479520
vt 0.942513 0.473905
vt 0.937888 0.444233
vt 0.937888 0.479520
vt 0.938013 0.473905
vt 0.826263 0.479520
vt 0.826263 0.444233
vt 0.951644 0.542225
vt 0.951644 0.565383
vt 0.941124 0.562278
vt 0.863211 0.444233
vt 0.863473 0.449849
vt 0.898445 0.444233
vt 0.898445 0.479520
vt 0.863583 0.479520
vt 0.863473 0.473905
vt 0.414966 0.038642
vt 0.922675 0.207215
vt 0.585034 0.460697
vt 0.582172 0.959128
vt 0.336170 0.946761
vt 0.499071 0.963123
vt 0.416007 0.958948
vt 0.262629 0.927033
vt 0.198210 0.900520
vt 0.145388 0.868242
vt 0.082135 0.791528
vt 0.074133 0.750038
vt 0.082497 0.708567
vt 0.106905 0.668706
vt 0.146420 0.631990
vt 0.199523 0.599828
vt 0.264173 0.573455
vt 0.417828 0.541875
vt 0.500928 0.537880
vt 0.583993 0.542056
vt 0.663830 0.554242
vt 0.737372 0.573971
vt 0.801791 0.600483
vt 0.854611 0.632761
vt 0.893805 0.669563
vt 0.917865 0.709475
vt 0.925867 0.750965
vt 0.917503 0.792437
vt 0.893094 0.832297
vt 0.853579 0.869014
vt 0.800477 0.901176
vt 0.735827 0.927548
vt 0.863211 0.479520
vt 0.951644 0.542225
vt 0.941124 0.522173
vt 0.951644 0.519067
vt 0.863583 0.444233
vt 0.500941 0.464925
vt 0.416811 0.460880
vt 0.335878 0.448719
vt 0.261252 0.428909
vt 0.195801 0.402210
vt 0.142041 0.369649
vt 0.102037 0.332478
vt 0.077326 0.292124
vt 0.068858 0.250139
vt 0.076958 0.208136
vt 0.101317 0.167729
vt 0.140996 0.130470
vt 0.194471 0.097793
vt 0.259689 0.070952
vt 0.334140 0.050979
vt 0.499059 0.034414
vt 0.583189 0.038458
vt 0.664122 0.050620
vt 0.738748 0.070430
vt 0.804199 0.097129
vt 0.857960 0.129690
vt 0.897964 0.166861
vt 0.931142 0.249200
vt 0.923041 0.291203
vt 0.898683 0.331610
vt 0.859004 0.368869
vt 0.805528 0.401546
vt 0.740311 0.428387
vt 0.665860 0.448360
vt 0.061393 0.511079
vt 0.054308 0.501304
vt 0.061393 0.501304
vt 0.029057 0.501347
vt 0.038178 0.506612
vt 0.038178 0.496081
vt 0.023799 0.511079
vt 0.016713 0.501304
vt 0.023799 0.501304
vt 0.053960 0.511079
vt 0.046703 0.501304
vt 0.053960 0.501304
vt 0.029057 0.490815
vt 0.969898 0.486522
vt 0.963363 0.489980
vt 0.965328 0.485685
vt 0.046355 0.511079
vt 0.039270 0.501304
vt 0.046355 0.501304
vt 0.019937 0.496081
vt 0.024158 0.517470
vt 0.031381 0.517470
vt 0.024168 0.517470
vt 0.038837 0.511079
vt 0.031751 0.501304
vt 0.038837 0.501304
vt 0.019937 0.506612
vt 0.023896 0.517470
vt 0.016583 0.517470
vt 0.016583 0.517470
vt 0.031403 0.511079
vt 0.024146 0.501304
vt 0.031403 0.501304
vt 0.956668 0.492927
vt 0.951044 0.491488
vt 0.029057 0.511878
vt 0.951044 0.508261
vt 0.955707 0.514214
vt 0.951697 0.518375
vt 0.969898 0.503295
vt 0.963363 0.506753
vt 0.965328 0.502458
vt 0.061524 0.494913
vt 0.061610 0.501304
vt 0.061610 0.511079
vt 0.061524 0.517470
vt 0.054091 0.501304
vt 0.054210 0.494913
vt 0.054308 0.511079
vt 0.054210 0.517470
vt 0.054091 0.511079
vt 0.046572 0.501304
vt 0.046675 0.494913
vt 0.046703 0.511079
vt 0.046675 0.517470
vt 0.046572 0.511079
vt 0.039053 0.501304
vt 0.039139 0.494913
vt 0.039270 0.511079
vt 0.039139 0.517470
vt 0.039053 0.511079
vt 0.031534 0.501304
vt 0.031654 0.494913
vt 0.031751 0.511079
vt 0.031654 0.517470
vt 0.031534 0.511079
vt 0.024015 0.501304
vt 0.024118 0.494913
vt 0.024146 0.511079
vt 0.024118 0.517470
vt 0.024015 0.511079
vt 0.016713 0.511079
vt 0.016497 0.501304
vt 0.053988 0.494913
vt 0.046453 0.494913
vt 0.038967 0.494913
vt 0.038967 0.517470
vt 0.031432 0.494913
vt 0.016583 0.494913
vt 0.023896 0.494913
vt 0.046611 0.517470
vt 0.053980 0.517470
vt 0.024039 0.517469
vt 0.957672 0.514636
vt 0.956405 0.519036
vt 0.039053 0.517470
vt 0.031480 0.517470
vt 0.955707 0.497440
vt 0.951697 0.501602
vt 0.957672 0.497862
vt 0.956405 0.502263
vt 0.969866 0.496345
vt 0.965284 0.490431
vt 0.963745 0.511549
vt 0.969866 0.513119
vt 0.038967 0.517470
vt 0.963745 0.494775
vt 0.046647 0.517470
vt 0.053938 0.517469
vt 0.957767 0.496486
vt 0.960294 0.494007
vt 0.958260 0.496538
vt 0.046453 0.517470
vt 0.965284 0.507204
vt 0.060970 0.517469
vt 0.023475 0.517470
vt 0.053417 0.517470
vt 0.963081 0.491322
vt 0.960526 0.493793
vt 0.959649 0.493592
vt 0.957767 0.513260
vt 0.960294 0.510780
vt 0.958260 0.513311
vt 0.053945 0.517469
vt 0.963081 0.508096
vt 0.960526 0.510566
vt 0.959649 0.510366
vt 0.024143 0.517470
vt 0.959467 0.510544
vt 0.956668 0.509700
vt 0.959467 0.493771
vt 0.963455 0.508264
vt 0.963455 0.491491
vt 0.061524 0.517470
vt 0.054149 0.517470
vt 0.375505 0.497442
vt 0.375582 0.492660
vt 0.374950 0.492583
vt 0.376025 0.497754
vt 0.373058 0.497710
vt 0.379930 0.495691
vt 0.378892 0.494437
vt 0.379532 0.495786
vt 0.378868 0.506191
vt 0.380567 0.507418
vt 0.377803 0.494119
vt 0.380474 0.494656
vt 0.380441 0.494918
vt 0.380567 0.495196
vt 0.380308 0.494582
vt 0.374785 0.496452
vt 0.374654 0.497063
vt 0.429409 0.488903
vt 0.397650 0.500469
vt 0.385706 0.488903
vt 0.429409 0.512035
vt 0.385706 0.512035
vt 0.563906 0.520584
vt 0.573786 0.488903
vt 0.573786 0.512035
vt 0.374724 0.496249
vt 0.380353 0.494376
vt 0.371636 0.498908
vt 0.371884 0.500888
vt 0.439289 0.520584
vt 0.439289 0.480354
vt 0.563905 0.480354
vt 0.372480 0.502616
vt 0.374542 0.496861
vt 0.379468 0.493725
vt 0.378693 0.493340
vt 0.373317 0.504204
vt 0.378005 0.493071
vt 0.374829 0.497282
vt 0.605544 0.500469
vt 0.617489 0.512035
vt 0.617489 0.488903
vt 0.955794 0.417077
vt 0.959804 0.430089
vt 0.948957 0.429215
vt 0.894497 0.417274
vt 0.898672 0.430518
vt 0.887810 0.429691
vt 0.881661 0.429409
vt 0.889432 0.409868
vt 0.891437 0.416411
vt 0.884355 0.397795
vt 0.901963 0.411443
vt 0.889016 0.409273
vt 0.943338 0.428812
vt 0.950840 0.409706
vt 0.952800 0.416228
vt 0.913974 0.431705
vt 0.913974 0.396937
vt 0.901299 0.411698
vt 0.975105 0.431247
vt 0.963231 0.411285
vt 0.975105 0.397003
vt 0.852166 0.428757
vt 0.880903 0.448455
vt 0.878280 0.460019
vt 0.947880 0.441826
vt 0.942691 0.447764
vt 0.944521 0.442004
vt 0.890783 0.447263
vt 0.886128 0.442520
vt 0.939899 0.460361
vt 0.953176 0.447224
vt 0.962596 0.457454
vt 0.931298 0.428494
vt 0.950436 0.409119
vt 0.881445 0.447996
vt 0.869567 0.429085
vt 0.870194 0.429116
vt 0.931922 0.428526
vt 0.960354 0.430128
vt 0.962573 0.411536
vt 0.899224 0.430558
vt 0.952709 0.446961
vt 0.891232 0.447517
vt 0.900156 0.457294
vt 0.913999 0.428141
vt 0.883545 0.442598
vt 0.945062 0.395542
vt 0.942127 0.448247
vt 0.023957 0.517470
vt 0.016497 0.511079
vt 0.053988 0.517470
vt 0.031432 0.517470
vn -0.0980 0.0000 -0.9952
vn 0.4714 0.0000 -0.8819
vn 0.6344 0.0000 -0.7730
vn 0.7730 0.0000 -0.6344
vn 0.8819 0.0000 -0.4714
vn 0.9569 0.0000 -0.2903
vn 0.9952 0.0000 -0.0980
vn 0.9952 0.0000 0.0980
vn 0.9569 0.0000 0.2903
vn 0.8819 0.0000 0.4714
vn 0.7730 0.0000 0.6344
vn 0.6344 0.0000 0.7730
vn 0.4714 0.0000 0.8819
vn 0.2903 0.0000 0.9569
vn 0.0980 0.0000 0.9952
vn -0.0980 0.0000 0.9952
vn -0.2903 0.0000 0.9569
vn -0.4714 0.0000 0.8819
vn -0.6344 0.0000 0.7730
vn -0.7730 0.0000 0.6344
vn -0.8819 0.0000 0.4714
vn -0.9569 0.0000 0.2903
vn -0.9952 0.0000 0.0980
vn -0.9952 0.0000 -0.0980
vn -0.9569 0.0000 -0.2903
vn -0.8819 0.0000 -0.4714
vn -0.7730 0.0000 -0.6344
vn -0.6344 0.0000 -0.7730
vn -0.4714 0.0000 -0.8819
vn -0.2903 0.0000 -0.9569
vn 0.2903 0.0000 -0.9569
vn 0.0000 1.0000 0.0000
vn 0.0980 0.0000 -0.9952
vn 0.0000 -0.7561 -0.6545
vn 0.0000 0.7561 -0.6545
vn 0.1277 -0.7561 -0.6419
vn 0.1277 0.7561 -0.6419
vn 0.2505 -0.7561 -0.6047
vn 0.2505 0.7561 -0.6047
vn 0.3636 -0.7561 -0.5442
vn 0.3636 0.7561 -0.5442
vn 0.4628 -0.7561 -0.4628
vn 0.4628 0.7561 -0.4628
vn 0.5442 -0.7561 -0.3636
vn 0.5442 0.7561 -0.3636
vn 0.6047 -0.7561 -0.2505
vn 0.6047 0.7561 -0.2505
vn 0.6419 -0.7561 -0.1277
vn 0.6419 0.7561 -0.1277
vn 0.6545 -0.7561 0.0000
vn 0.6545 0.7561 0.0000
vn 0.6419 -0.7561 0.1277
vn 0.6419 0.7561 0.1277
vn 0.6047 -0.7561 0.2505
vn 0.6047 0.7561 0.2505
vn 0.5442 -0.7561 0.3636
vn 0.5442 0.7561 0.3636
vn 0.4628 -0.7561 0.4628
vn 0.4628 0.7561 0.4628
vn 0.3636 -0.7561 0.5442
vn 0.3636 0.7561 0.5442
vn 0.2505 -0.7561 0.6047
vn 0.2505 0.7561 0.6047
vn 0.1277 -0.7561 0.6419
vn 0.1277 0.7561 0.6419
vn 0.0000 -0.7561 0.6545
vn 0.0000 0.7561 0.6545
vn -0.1277 -0.7561 0.6419
vn -0.1277 0.7561 0.6419
vn -0.2505 -0.7561 0.6047
vn -0.2505 0.7561 0.6047
vn -0.3636 -0.7561 0.5442
vn -0.3636 0.7561 0.5442
vn -0.4628 -0.7561 0.4628
vn -0.4628 0.7561 0.4628
vn -0.5442 -0.7561 0.3636
vn -0.5442 0.7561 0.3636
vn -0.6047 -0.7561 0.2505
vn -0.6047 0.7561 0.2505
vn -0.6419 -0.7561 0.1277
vn -0.6419 0.7561 0.1277
vn -0.6545 -0.7561 0.0000
vn -0.6545 0.7561 0.0000
vn -0.6419 -0.7561 -0.1277
vn -0.6419 0.7561 -0.1277
vn -0.6047 -0.7561 -0.2505
vn -0.6047 0.7561 -0.2505
vn -0.5442 -0.7561 -0.3636
vn -0.5442 0.7561 -0.3636
vn -0.4628 -0.7561 -0.4628
vn -0.4628 0.7561 -0.4628
vn -0.3636 -0.7561 -0.5442
vn -0.3636 0.7561 -0.5442
vn -0.2505 -0.7561 -0.6047
vn -0.2505 0.7561 -0.6047
vn -0.1277 -0.7561 -0.6419
vn -0.1277 0.7561 -0.6419
vn 0.0617 -0.7772 -0.6262
vn 0.0617 0.7772 -0.6262
vn 0.0000 0.0000 -1.0000
vn 0.1951 0.0000 -0.9808
vn 0.1827 -0.7772 -0.6021
vn 0.1827 0.7772 -0.6021
vn 0.3827 0.0000 -0.9239
vn 0.2966 -0.7772 -0.5549
vn 0.2966 0.7772 -0.5549
vn 0.5556 0.0000 -0.8315
vn 0.3992 -0.7772 -0.4864
vn 0.3992 0.7772 -0.4864
vn 0.7071 0.0000 -0.7071
vn 0.4864 -0.7772 -0.3992
vn 0.4864 0.7772 -0.3992
vn 0.8315 0.0000 -0.5556
vn 0.5549 -0.7772 -0.2966
vn 0.5549 0.7772 -0.2966
vn 0.9239 0.0000 -0.3827
vn 0.6021 -0.7772 -0.1827
vn 0.6021 0.7772 -0.1827
vn 0.9808 0.0000 -0.1951
vn 0.6262 -0.7772 -0.0617
vn 0.6262 0.7772 -0.0617
vn 1.0000 -0.0000 0.0000
vn 0.6262 -0.7772 0.0617
vn 0.6262 0.7772 0.0617
vn 0.9808 0.0000 0.1951
vn 0.6021 -0.7772 0.1827
vn 0.6021 0.7772 0.1827
vn 0.9239 0.0000 0.3827
vn 0.5549 -0.7772 0.2966
vn 0.5549 0.7772 0.2966
vn 0.8315 0.0000 0.5556
vn 0.4864 -0.7772 0.3992
vn 0.4864 0.7772 0.3992
vn 0.7071 0.0000 0.7071
vn 0.3992 -0.7772 0.4864
vn 0.3992 0.7772 0.4864
vn 0.5556 0.0000 0.8315
vn 0.2966 -0.7772 0.5549
vn 0.2966 0.7772 0.5549
vn 0.3827 0.0000 0.9239
vn 0.1827 -0.7772 0.6021
vn 0.1827 0.7772 0.6021
vn 0.1951 0.0000 0.9808
vn 0.0617 -0.7772 0.6262
vn 0.0617 0.7772 0.6262
vn 0.0000 0.0000 1.0000
vn -0.0617 -0.7772 0.6262
vn -0.0617 0.7772 0.6262
vn -0.1951 0.0000 0.9808
vn -0.1827 -0.7772 0.6021
vn -0.1827 0.7772 0.6021
vn -0.3827 0.0000 0.9239
vn -0.2966 -0.7772 0.5549
vn -0.2966 0.7772 0.5549
vn -0.5556 0.0000 0.8315
vn -0.3992 -0.7772 0.4864
vn -0.3992 0.7772 0.4864
vn -0.7071 0.0000 0.7071
vn -0.4864 -0.7772 0.3992
vn -0.4864 0.7772 0.3992
vn -0.8315 0.0000 0.5556
vn -0.5549 -0.7772 0.2966
vn -0.5549 0.7772 0.2966
vn -0.9239 0.0000 0.3827
vn -0.6021 -0.7772 0.1827
vn -0.6021 0.7772 0.1827
vn -0.9808 0.0000 0.1951
vn -0.6262 -0.7772 0.0617
vn -0.6262 0.7772 0.0617
vn -1.0000 0.0000 0.0000
vn -0.6262 -0.7772 -0.0617
vn -0.6262 0.7772 -0.0617
vn -0.9808 0.0000 -0.1951
vn -0.6021 -0.7772 -0.1827
vn -0.6021 0.7772 -0.1827
vn -0.9239 0.0000 -0.3827
vn -0.5549 -0.7772 -0.2966
vn -0.5549 0.7772 -0.2966
vn -0.8315 0.0000 -0.5556
vn -0.4864 -0.7772 -0.3992
vn -0.4864 0.7772 -0.3992
vn -0.7071 0.0000 -0.7071
vn -0.3992 -0.7772 -0.4864
vn -0.3992 0.7772 -0.4864
vn -0.5556 0.0000 -0.8315
vn -0.2966 -0.7772 -0.5549
vn -0.2966 0.7772 -0.5549
vn -0.3827 0.0000 -0.9239
vn -0.1827 -0.7772 -0.6021
vn -0.1827 0.7772 -0.6021
vn -0.1951 0.0000 -0.9808
vn -0.0617 -0.7772 -0.6262
vn -0.0617 0.7772 -0.6262
vn 0.0000 -1.0000 -0.0000
vn -0.9116 0.0000 -0.4110
vn -0.9116 0.0000 0.4110
vn -0.6889 0.0000 -0.7248
vn 0.9116 0.0000 -0.4110
vn 0.9116 0.0000 0.4110
vn 0.9116 0.0000 -0.4111
vn -0.9116 0.0000 -0.4111
vn 0.6889 0.0000 0.7248
vn -0.5014 -0.8652 0.0000
vn -0.4909 0.8712 0.0000
vn -0.2796 -0.8307 -0.4813
vn -0.2742 0.8378 -0.4720
vn 0.2796 -0.8308 -0.4813
vn 0.2742 0.8378 -0.4720
vn 0.5014 -0.8652 0.0000
vn 0.4909 0.8712 0.0000
vn 0.2796 -0.8307 0.4813
vn 0.2742 0.8378 0.4720
vn -0.2796 -0.8307 0.4813
vn -0.2742 0.8378 0.4720
vn -0.4474 -0.8713 -0.2017
vn -0.4377 0.8772 -0.1974
vn -0.5023 0.0000 -0.8647
vn 0.0000 -0.7919 -0.6107
vn 0.0000 0.8000 -0.6000
vn 0.5023 0.0000 -0.8647
vn 0.4471 -0.8714 -0.2017
vn 0.4379 0.8771 -0.1974
vn 0.4474 -0.8713 0.2017
vn 0.4377 0.8772 0.1974
vn 0.5023 0.0000 0.8647
vn 0.0000 -0.7919 0.6107
vn 0.0000 0.8000 0.6000
vn -0.5023 0.0000 0.8647
vn -0.4471 -0.8714 0.2017
vn -0.4379 0.8771 0.1974
vn 0.6889 0.0000 -0.7248
vn 0.9116 0.0000 0.4111
vn -0.6889 0.0000 0.7248
vn -0.9116 0.0000 0.4111
vn 0.0000 0.9998 -0.0221
vn 0.0015 0.9870 0.1604
vn -0.5426 0.8400 0.0000
vn 0.5426 0.8400 0.0000
vn 0.8400 0.5426 0.0000
vn -0.8400 0.5426 0.0000
vn -0.6446 0.7071 0.2907
vn 0.6446 0.7071 0.2907
vn 0.6446 0.7071 -0.2907
vn -0.6446 0.7071 -0.2907
vn 0.4871 0.7071 -0.5125
vn -0.4871 0.7071 -0.5125
vn -0.4871 0.7071 0.5125
vn 0.4871 0.7071 0.5125
vn -0.8660 0.0000 -0.5000
vn 0.8660 0.0000 0.5000
vn -0.8660 0.0000 0.5000
vn 0.8660 0.0000 -0.5000
vn 0.8887 0.0000 0.4585
vn -0.8887 0.0000 -0.4585
vn 0.8887 0.0000 -0.4585
vn -0.8887 0.0000 0.4585
vn 0.5318 0.6357 0.5595
vn 0.7505 0.5707 -0.3331
vn -0.7505 0.5707 0.3331
vn -0.7263 0.5998 -0.3359
vn -0.6180 0.4699 0.6303
vn -0.0643 0.9975 0.0290
vn 0.0643 0.9975 0.0290
vn 0.0643 0.9975 -0.0290
vn -0.0643 0.9975 -0.0290
vn 0.0486 0.9975 -0.0511
vn -0.0486 0.9975 -0.0511
vn -0.0486 0.9975 0.0511
vn 0.0486 0.9975 0.0511
vn 0.6103 0.4641 -0.6420
vn -0.5525 0.7922 0.2590
vn -0.6463 0.7052 -0.2915
vn 0.7172 0.6173 -0.3234
vn 0.6463 0.7052 0.2915
vn -0.5681 0.5657 -0.5977
vn 0.8847 0.2234 0.4092
vn -0.4471 -0.8714 -0.2017
vn -0.4379 0.8771 -0.1974
vn 0.4474 -0.8713 -0.2017
vn 0.4377 0.8772 -0.1974
vn 0.4471 -0.8714 0.2017
vn 0.4379 0.8771 0.1974
vn -0.4474 -0.8713 0.2017
vn -0.4377 0.8772 0.1974
vn 0.0015 1.0000 -0.0015
vn -0.0513 0.9985 0.0212
vn -0.4872 0.7071 -0.5125
vn 0.4872 0.7071 0.5125
vn 0.6220 0.4730 0.6240
vn 0.6463 0.7052 -0.2915
vn -0.6463 0.7052 0.2915
vn -0.5539 0.7942 -0.2498
vn -0.5676 0.5667 0.5972
vn 0.5942 0.5182 -0.6151
vn -0.8814 0.2554 0.3975
vn -0.7505 0.5707 -0.3331
vn 0.8849 0.2225 -0.4093
vn 0.7505 0.5707 0.3331
vn -0.6179 0.4699 -0.6304
vn 0.7172 0.6173 0.3234
usemtl BG
s off
f 191/1/1 2/2/1 189/3/1
f 17/4/2 20/5/2 15/6/2
f 23/7/3 26/8/3 21/9/3
f 29/10/4 32/11/4 27/12/4
f 35/13/5 38/14/5 33/15/5
f 41/16/6 44/17/6 39/18/6
f 47/19/7 50/20/7 45/21/7
f 53/22/8 56/23/8 51/24/8
f 59/25/9 62/26/9 57/27/9
f 65/28/10 68/29/10 63/30/10
f 71/31/11 74/32/11 69/33/11
f 77/34/12 80/35/12 75/36/12
f 83/37/13 86/38/13 81/39/13
f 89/40/14 92/41/14 87/42/14
f 95/43/15 98/44/15 93/45/15
f 101/46/16 104/47/16 99/48/16
f 107/49/17 110/50/17 105/51/17
f 113/52/18 116/53/18 111/54/18
f 119/55/19 122/56/19 117/57/19
f 125/58/20 128/59/20 123/60/20
f 131/61/21 134/62/21 129/63/21
f 137/64/22 140/65/22 135/66/22
f 143/67/23 146/68/23 141/69/23
f 149/70/24 152/71/24 147/72/24
f 155/73/25 158/74/25 153/75/25
f 161/76/26 164/77/26 159/78/26
f 167/79/27 170/80/27 165/81/27
f 173/82/28 176/83/28 171/84/28
f 179/85/29 182/86/29 177/87/29
f 185/88/30 188/89/30 183/90/30
f 11/91/31 14/92/31 9/93/31
f 16/94/32 160/95/32 112/96/32
f 5/97/33 8/98/33 3/99/33
f 1/100/34 2/2/34 3/101/34
f 4/102/35 5/103/35 6/104/35
f 7/105/36 8/98/36 9/93/36
f 10/106/37 11/91/37 12/107/37
f 13/108/38 14/92/38 15/6/38
f 16/109/39 17/4/39 18/110/39
f 19/111/40 20/5/40 21/9/40
f 22/112/41 23/7/41 24/113/41
f 25/114/42 26/8/42 27/12/42
f 28/115/43 29/10/43 30/116/43
f 31/117/44 32/11/44 33/15/44
f 34/118/45 35/13/45 36/119/45
f 37/120/46 38/14/46 39/18/46
f 40/121/47 41/16/47 42/122/47
f 43/123/48 44/17/48 45/21/48
f 46/124/49 47/19/49 48/125/49
f 49/126/50 50/20/50 51/24/50
f 52/127/51 53/22/51 54/128/51
f 55/129/52 56/130/52 57/27/52
f 58/131/53 59/25/53 60/132/53
f 61/133/54 62/26/54 63/30/54
f 64/134/55 65/28/55 66/135/55
f 67/136/56 68/29/56 69/33/56
f 70/137/57 71/31/57 72/138/57
f 73/139/58 74/32/58 75/36/58
f 76/140/59 77/34/59 78/141/59
f 79/142/60 80/35/60 81/39/60
f 82/143/61 83/37/61 84/144/61
f 85/145/62 86/38/62 87/42/62
f 88/146/63 89/40/63 90/147/63
f 91/148/64 92/41/64 93/45/64
f 94/149/65 95/43/65 96/150/65
f 97/151/66 98/44/66 99/48/66
f 100/152/67 101/46/67 102/153/67
f 103/154/68 104/47/68 105/51/68
f 106/155/69 107/49/69 108/156/69
f 109/157/70 110/50/70 111/54/70
f 112/158/71 113/52/71 114/159/71
f 115/160/72 116/53/72 117/57/72
f 118/161/73 119/55/73 120/162/73
f 121/163/74 122/56/74 123/60/74
f 124/164/75 125/58/75 126/165/75
f 127/166/76 128/59/76 129/63/76
f 130/167/77 131/61/77 132/168/77
f 133/169/78 134/62/78 135/66/78
f 136/170/79 137/64/79 138/171/79
f 139/172/80 140/65/80 141/69/80
f 142/173/81 143/67/81 144/174/81
f 145/175/82 146/68/82 147/72/82
f 148/176/83 149/70/83 150/177/83
f 151/178/84 152/179/84 153/75/84
f 154/180/85 155/73/85 156/181/85
f 157/182/86 158/74/86 159/78/86
f 160/183/87 161/76/87 162/184/87
f 163/185/88 164/77/88 165/81/88
f 166/186/89 167/79/89 168/187/89
f 169/188/90 170/80/90 171/84/90
f 172/189/91 173/82/91 174/190/91
f 175/191/92 176/83/92 177/87/92
f 178/192/93 179/85/93 180/193/93
f 181/194/94 182/86/94 183/90/94
f 184/195/95 185/88/95 186/196/95
f 187/197/96 188/89/96 189/3/96
f 190/198/97 191/1/97 192/199/97
f 3/99/98 7/105/98 1/200/98
f 12/107/99 4/201/99 10/106/99
f 6/104/100 3/101/100 2/2/100
f 9/93/101 12/107/101 11/91/101
f 14/92/102 7/105/102 9/93/102
f 11/91/103 16/109/103 18/110/103
f 15/6/104 18/110/104 17/4/104
f 20/5/105 13/108/105 15/6/105
f 17/4/106 22/112/106 24/113/106
f 21/9/107 24/113/107 23/7/107
f 26/8/108 19/111/108 21/9/108
f 23/7/109 28/115/109 30/116/109
f 27/12/110 30/116/110 29/10/110
f 32/11/111 25/114/111 27/12/111
f 29/10/112 34/118/112 36/119/112
f 33/15/113 36/119/113 35/13/113
f 38/14/114 31/117/114 33/15/114
f 35/13/115 40/121/115 42/122/115
f 39/18/116 42/122/116 41/16/116
f 44/17/117 37/120/117 39/18/117
f 41/16/118 46/124/118 48/125/118
f 45/21/119 48/125/119 47/19/119
f 50/20/120 43/123/120 45/21/120
f 47/19/121 52/127/121 54/128/121
f 51/24/122 54/128/122 53/22/122
f 51/202/123 55/203/123 49/204/123
f 53/22/124 58/205/124 60/206/124
f 57/27/125 60/132/125 59/25/125
f 57/27/126 61/133/126 55/129/126
f 59/25/127 64/134/127 66/135/127
f 63/30/128 66/135/128 65/28/128
f 68/29/129 61/133/129 63/30/129
f 65/28/130 70/137/130 72/138/130
f 69/33/131 72/138/131 71/31/131
f 74/32/132 67/136/132 69/33/132
f 71/31/133 76/140/133 78/141/133
f 75/36/134 78/141/134 77/34/134
f 80/35/135 73/139/135 75/36/135
f 77/34/136 82/143/136 84/144/136
f 81/39/137 84/144/137 83/37/137
f 86/38/138 79/142/138 81/39/138
f 83/37/139 88/146/139 90/147/139
f 87/42/140 90/147/140 89/40/140
f 92/41/141 85/145/141 87/42/141
f 89/40/142 94/149/142 96/150/142
f 93/45/143 96/150/143 95/43/143
f 98/44/144 91/148/144 93/45/144
f 95/43/145 100/152/145 102/153/145
f 99/48/146 102/153/146 101/46/146
f 99/48/147 103/207/147 97/151/147
f 101/46/148 106/208/148 108/156/148
f 105/51/149 108/156/149 107/49/149
f 105/51/150 109/157/150 103/154/150
f 107/49/151 112/158/151 114/159/151
f 111/54/152 114/159/152 113/52/152
f 111/54/153 115/160/153 109/157/153
f 113/52/154 118/161/154 120/162/154
f 117/57/155 120/162/155 119/55/155
f 117/57/156 121/163/156 115/160/156
f 119/55/157 124/164/157 126/165/157
f 123/60/158 126/165/158 125/58/158
f 128/59/159 121/163/159 123/60/159
f 125/58/160 130/167/160 132/168/160
f 129/63/161 132/168/161 131/61/161
f 134/62/162 127/166/162 129/63/162
f 131/61/163 136/170/163 138/171/163
f 135/66/164 138/171/164 137/64/164
f 140/65/165 133/169/165 135/66/165
f 137/64/166 142/173/166 144/174/166
f 141/69/167 144/174/167 143/67/167
f 146/68/168 139/172/168 141/69/168
f 143/67/169 148/176/169 150/177/169
f 147/72/170 150/177/170 149/70/170
f 152/71/171 145/175/171 147/72/171
f 149/70/172 154/209/172 156/210/172
f 153/75/173 156/181/173 155/73/173
f 158/74/174 151/178/174 153/75/174
f 155/73/175 160/183/175 162/184/175
f 159/78/176 162/184/176 161/76/176
f 164/77/177 157/182/177 159/78/177
f 168/187/178 160/183/178 166/186/178
f 165/81/179 168/187/179 167/79/179
f 170/80/180 163/185/180 165/81/180
f 167/79/181 172/189/181 174/190/181
f 171/84/182 174/190/182 173/82/182
f 171/84/183 175/191/183 169/188/183
f 173/82/184 178/192/184 180/193/184
f 177/87/185 180/193/185 179/85/185
f 182/86/186 175/191/186 177/87/186
f 179/85/187 184/195/187 186/196/187
f 183/90/188 186/196/188 185/88/188
f 188/89/189 181/194/189 183/90/189
f 192/199/190 184/195/190 190/198/190
f 189/3/191 192/199/191 191/1/191
f 2/2/192 187/197/192 189/3/192
f 6/104/193 190/198/193 4/102/193
f 91/211/194 139/212/194 187/213/194
f 191/1/1 6/104/1 2/2/1
f 17/4/2 24/113/2 20/5/2
f 23/7/3 30/116/3 26/8/3
f 29/10/4 36/119/4 32/11/4
f 35/13/5 42/122/5 38/14/5
f 41/16/6 48/125/6 44/17/6
f 47/19/7 54/128/7 50/20/7
f 53/22/8 60/206/8 56/23/8
f 59/25/9 66/135/9 62/26/9
f 65/28/10 72/138/10 68/29/10
f 71/31/11 78/141/11 74/32/11
f 77/34/12 84/144/12 80/35/12
f 83/37/13 90/147/13 86/38/13
f 89/40/14 96/150/14 92/41/14
f 95/43/15 102/153/15 98/44/15
f 101/46/16 108/156/16 104/47/16
f 107/49/17 114/159/17 110/50/17
f 113/52/18 120/162/18 116/53/18
f 119/55/19 126/165/19 122/56/19
f 125/58/20 132/168/20 128/59/20
f 131/61/21 138/171/21 134/62/21
f 137/64/22 144/174/22 140/65/22
f 143/67/23 150/177/23 146/68/23
f 149/70/24 156/210/24 152/71/24
f 155/73/25 162/184/25 158/74/25
f 161/76/26 168/187/26 164/77/26
f 167/79/27 174/190/27 170/80/27
f 173/82/28 180/193/28 176/83/28
f 179/85/29 186/196/29 182/86/29
f 185/88/30 192/199/30 188/89/30
f 11/91/31 18/110/31 14/92/31
f 16/94/32 10/214/32 184/215/32
f 10/214/32 4/216/32 184/215/32
f 4/216/32 190/217/32 184/215/32
f 184/215/32 178/218/32 172/219/32
f 172/219/32 166/220/32 160/95/32
f 160/95/32 154/221/32 148/222/32
f 148/222/32 142/223/32 160/95/32
f 142/223/32 136/224/32 160/95/32
f 136/224/32 130/225/32 124/226/32
f 124/226/32 118/227/32 112/96/32
f 112/96/32 106/228/32 100/229/32
f 100/229/32 94/230/32 112/96/32
f 94/230/32 88/231/32 112/96/32
f 88/231/32 82/232/32 76/233/32
f 76/233/32 70/234/32 64/235/32
f 64/235/32 58/236/32 52/237/32
f 52/237/32 46/238/32 64/235/32
f 46/238/32 40/239/32 64/235/32
f 40/239/32 34/240/32 28/241/32
f 28/241/32 22/242/32 40/239/32
f 22/242/32 16/94/32 40/239/32
f 184/215/32 172/219/32 16/94/32
f 172/219/32 160/95/32 16/94/32
f 136/224/32 124/226/32 160/95/32
f 124/226/32 112/96/32 160/95/32
f 88/231/32 76/233/32 64/235/32
f 112/96/32 88/231/32 16/94/32
f 88/231/32 64/235/32 16/94/32
f 64/235/32 40/239/32 16/94/32
f 5/97/33 12/107/33 8/98/33
f 3/99/98 8/98/98 7/105/98
f 12/107/99 5/97/99 4/201/99
f 6/104/100 5/103/100 3/101/100
f 9/93/101 8/98/101 12/107/101
f 14/92/102 13/108/102 7/105/102
f 11/91/103 10/106/103 16/109/103
f 15/6/104 14/92/104 18/110/104
f 20/5/105 19/111/105 13/108/105
f 17/4/106 16/109/106 22/112/106
f 21/9/107 20/5/107 24/113/107
f 26/8/108 25/114/108 19/111/108
f 23/7/109 22/112/109 28/115/109
f 27/12/110 26/8/110 30/116/110
f 32/11/111 31/117/111 25/114/111
f 29/10/112 28/115/112 34/118/112
f 33/15/113 32/11/113 36/119/113
f 38/14/114 37/120/114 31/117/114
f 35/13/115 34/118/115 40/121/115
f 39/18/116 38/14/116 42/122/116
f 44/17/117 43/123/117 37/120/117
f 41/16/118 40/121/118 46/124/118
f 45/21/119 44/17/119 48/125/119
f 50/20/120 49/126/120 43/123/120
f 47/19/121 46/124/121 52/127/121
f 51/24/122 50/20/122 54/128/122
f 51/24/123 56/23/123 55/243/123
f 53/244/124 52/245/124 58/246/124
f 57/27/125 56/130/125 60/132/125
f 57/27/126 62/26/126 61/133/126
f 59/25/127 58/131/127 64/134/127
f 63/30/128 62/26/128 66/135/128
f 68/29/129 67/136/129 61/133/129
f 65/28/130 64/134/130 70/137/130
f 69/33/131 68/29/131 72/138/131
f 74/32/132 73/139/132 67/136/132
f 71/31/133 70/137/133 76/140/133
f 75/36/134 74/32/134 78/141/134
f 80/35/135 79/142/135 73/139/135
f 77/34/136 76/140/136 82/143/136
f 81/39/137 80/35/137 84/144/137
f 86/38/138 85/145/138 79/142/138
f 83/37/139 82/143/139 88/146/139
f 87/42/140 86/38/140 90/147/140
f 92/41/141 91/148/141 85/145/141
f 89/40/142 88/146/142 94/149/142
f 93/45/143 92/41/143 96/150/143
f 98/44/144 97/151/144 91/148/144
f 95/43/145 94/149/145 100/152/145
f 99/48/146 98/44/146 102/153/146
f 99/48/147 104/47/147 103/207/147
f 101/46/148 100/152/148 106/208/148
f 105/51/149 104/47/149 108/156/149
f 105/51/150 110/50/150 109/157/150
f 107/49/151 106/155/151 112/158/151
f 111/54/152 110/50/152 114/159/152
f 111/54/153 116/53/153 115/160/153
f 113/52/154 112/158/154 118/161/154
f 117/57/155 116/53/155 120/162/155
f 117/57/156 122/56/156 121/163/156
f 119/55/157 118/161/157 124/164/157
f 123/60/158 122/56/158 126/165/158
f 128/59/159 127/166/159 121/163/159
f 125/58/160 124/164/160 130/167/160
f 129/63/161 128/59/161 132/168/161
f 134/62/162 133/169/162 127/166/162
f 131/61/163 130/167/163 136/170/163
f 135/66/164 134/62/164 138/171/164
f 140/65/165 139/172/165 133/169/165
f 137/64/166 136/170/166 142/173/166
f 141/69/167 140/65/167 144/174/167
f 146/68/168 145/175/168 139/172/168
f 143/67/169 142/173/169 148/176/169
f 147/72/170 146/68/170 150/177/170
f 152/71/171 151/247/171 145/175/171
f 149/70/172 148/176/172 154/209/172
f 153/75/173 152/179/173 156/181/173
f 158/74/174 157/182/174 151/178/174
f 155/73/175 154/180/175 160/183/175
f 159/78/176 158/74/176 162/184/176
f 164/77/177 163/185/177 157/182/177
f 168/187/178 161/76/178 160/183/178
f 165/81/179 164/77/179 168/187/179
f 170/80/180 169/188/180 163/185/180
f 167/79/181 166/186/181 172/189/181
f 171/84/182 170/80/182 174/190/182
f 171/84/183 176/83/183 175/191/183
f 173/82/184 172/189/184 178/192/184
f 177/87/185 176/83/185 180/193/185
f 182/86/186 181/194/186 175/191/186
f 179/85/187 178/192/187 184/195/187
f 183/90/188 182/86/188 186/196/188
f 188/89/189 187/197/189 181/194/189
f 192/199/190 185/88/190 184/195/190
f 189/3/191 188/89/191 192/199/191
f 2/2/192 1/100/192 187/197/192
f 6/104/193 191/1/193 190/198/193
f 187/213/194 1/248/194 7/249/194
f 7/249/194 13/250/194 19/251/194
f 19/251/194 25/252/194 31/253/194
f 31/253/194 37/254/194 19/251/194
f 37/254/194 43/255/194 19/251/194
f 43/255/194 49/256/194 55/257/194
f 55/257/194 61/258/194 43/255/194
f 61/258/194 67/259/194 43/255/194
f 67/259/194 73/260/194 79/261/194
f 79/261/194 85/262/194 91/211/194
f 91/211/194 97/263/194 103/264/194
f 103/264/194 109/265/194 91/211/194
f 109/265/194 115/266/194 91/211/194
f 115/266/194 121/267/194 127/268/194
f 127/268/194 133/269/194 139/212/194
f 139/212/194 145/270/194 151/271/194
f 151/271/194 157/272/194 139/212/194
f 157/272/194 163/273/194 139/212/194
f 163/273/194 169/274/194 175/275/194
f 175/275/194 181/276/194 187/213/194
f 187/213/194 7/249/194 43/255/194
f 7/249/194 19/251/194 43/255/194
f 67/259/194 79/261/194 91/211/194
f 115/266/194 127/268/194 139/212/194
f 163/273/194 175/275/194 187/213/194
f 43/255/194 67/259/194 91/211/194
f 91/211/194 115/266/194 139/212/194
f 139/212/194 163/273/194 187/213/194
f 187/213/194 43/255/194 91/211/194
f 197/277/195 200/278/195 194/279/195
f 193/280/194 202/281/194 208/282/194
f 229/283/196 196/284/196 225/285/196
f 205/286/100 206/287/100 201/288/100
f 193/280/194 208/282/194 214/289/194
f 302/290/197 240/291/197 291/292/197
f 211/293/198 212/294/198 207/295/198
f 193/280/194 214/289/194 220/296/194
f 296/297/32 306/298/32 309/299/32
f 217/300/199 218/301/199 213/302/199
f 193/280/194 220/296/194 226/303/194
f 228/304/32 287/305/32 199/306/32
f 223/307/146 224/308/146 219/309/146
f 291/292/200 235/310/200 293/311/200
f 193/280/194 195/312/194 202/281/194
f 286/313/201 243/314/201 288/315/201
f 308/316/202 230/317/202 297/318/202
f 194/279/203 195/319/203 196/320/203
f 197/277/204 198/321/204 199/322/204
f 200/278/205 201/323/205 202/324/205
f 203/325/206 204/326/206 205/327/206
f 206/287/207 207/328/207 208/329/207
f 209/330/208 210/331/208 211/332/208
f 212/294/209 213/333/209 214/334/209
f 215/335/210 216/336/210 217/337/210
f 218/301/211 219/338/211 220/339/211
f 221/340/212 222/341/212 223/342/212
f 224/308/213 225/343/213 226/344/213
f 227/345/214 228/346/214 229/347/214
f 200/278/215 195/319/215 194/279/215
f 203/325/216 199/322/216 204/326/216
f 198/348/170 194/349/170 196/284/170
f 201/288/217 203/325/217 205/286/217
f 206/287/218 202/350/218 201/288/218
f 205/286/219 210/331/219 209/330/219
f 207/295/220 209/330/220 211/293/220
f 207/295/221 214/334/221 208/351/221
f 211/293/222 216/336/222 215/335/222
f 213/302/122 215/335/122 217/300/122
f 218/301/223 214/352/223 213/302/223
f 221/340/224 216/353/224 222/341/224
f 219/309/225 221/340/225 223/307/225
f 224/308/226 220/354/226 219/309/226
f 223/307/227 228/346/227 227/345/227
f 225/285/228 227/345/228 229/283/228
f 225/285/229 195/355/229 226/356/229
f 229/283/230 199/306/230 198/348/230
f 193/280/194 226/303/194 195/312/194
f 303/357/32 300/358/32 309/359/32
f 288/315/231 256/360/231 301/361/231
f 222/341/32 292/362/32 295/363/32
f 293/311/232 239/364/232 294/365/232
f 294/365/233 252/366/233 307/367/233
f 304/368/234 255/369/234 302/290/234
f 301/361/232 246/370/232 299/371/232
f 306/298/32 305/372/32 303/357/32
f 307/367/201 251/373/201 304/368/201
f 290/374/235 300/375/235 303/357/235
f 238/376/32 249/377/32 253/378/32
f 210/379/32 292/362/32 216/336/32
f 299/371/200 245/380/200 308/316/200
f 298/381/32 309/382/32 300/383/32
f 241/384/32 250/385/32 236/386/32
f 242/387/32 247/388/32 257/389/32
f 210/331/236 289/390/236 290/374/236
f 231/391/32 248/392/32 232/393/32
f 309/394/32 306/298/32 303/357/32
f 228/346/32 295/363/32 296/297/32
f 232/393/237 233/395/237 234/396/237
f 235/310/238 236/386/238 237/397/238
f 246/370/239 247/388/239 248/392/239
f 249/377/240 250/385/240 251/373/240
f 232/393/241 230/317/241 231/391/241
f 237/397/242 239/364/242 235/310/242
f 236/386/243 240/291/243 241/384/243
f 233/395/244 243/314/244 234/396/244
f 246/370/243 244/398/243 245/380/243
f 251/373/244 253/378/244 249/377/244
f 251/373/241 254/399/241 255/369/241
f 246/370/242 257/389/242 247/388/242
f 248/392/32 233/395/32 232/393/32
f 256/360/245 242/387/245 257/389/245
f 241/384/246 255/369/246 254/399/246
f 237/397/32 250/385/32 249/377/32
f 252/366/247 238/376/247 253/378/247
f 245/380/248 231/391/248 230/317/248
f 204/326/32 287/400/32 289/401/32
f 271/402/249 270/403/249 258/404/249
f 259/405/100 258/404/100 260/406/100
f 272/407/194 266/408/194 261/409/194
f 266/408/250 269/410/250 262/411/250
f 263/412/146 262/411/146 264/413/146
f 277/414/194 272/407/194 285/415/194
f 266/408/194 277/414/194 279/416/194
f 271/402/194 268/417/194 275/418/194
f 267/419/32 276/420/32 280/421/32
f 276/420/32 270/422/32 284/423/32
f 260/424/32 269/425/32 273/426/32
f 267/419/32 270/422/32 276/420/32
f 265/427/251 264/413/251 267/428/251
f 272/407/100 273/429/100 281/430/100
f 258/431/32 264/432/32 262/433/32
f 269/425/32 260/424/32 262/433/32
f 261/409/252 260/406/252 273/429/252
f 269/410/146 266/408/146 279/416/146
f 285/415/253 281/430/253 278/434/253
f 282/435/254 280/436/254 276/437/254
f 277/414/255 278/434/255 283/438/255
f 275/418/256 276/437/256 284/439/256
f 270/403/100 271/402/100 274/440/100
f 273/426/32 278/441/32 281/442/32
f 278/441/32 269/425/32 283/443/32
f 258/431/32 262/433/32 260/424/32
f 268/417/146 267/428/146 280/436/146
f 270/422/32 264/432/32 258/431/32
f 264/432/32 270/422/32 267/419/32
f 273/426/32 269/425/32 278/441/32
f 261/409/194 263/412/194 259/405/194
f 266/408/194 263/412/194 261/409/194
f 271/402/194 275/418/194 274/440/194
f 259/405/194 265/427/194 271/402/194
f 266/408/194 272/407/194 277/414/194
f 265/427/194 259/405/194 263/412/194
f 275/418/194 268/417/194 282/435/194
f 268/417/194 271/402/194 265/427/194
f 308/444/200 325/445/200 299/446/200
f 302/447/234 326/448/234 304/449/234
f 293/450/200 319/451/200 291/452/200
f 290/453/257 331/454/257 318/455/257
f 286/456/234 311/457/234 297/458/234
f 305/459/258 331/454/258 303/460/258
f 291/452/197 330/461/197 302/447/197
f 298/462/259 323/463/259 309/464/259
f 292/465/260 317/466/260 295/467/260
f 301/468/231 320/469/231 288/470/231
f 304/449/201 329/471/201 307/472/201
f 289/473/261 332/474/261 300/475/261
f 297/318/234 234/396/234 286/313/234
f 311/457/262 313/476/262 310/477/262
f 316/478/263 314/479/263 315/480/263
f 319/451/264 314/479/264 318/455/264
f 320/469/265 313/476/265 312/481/265
f 324/482/264 322/483/264 323/463/264
f 327/484/265 329/471/265 326/448/265
f 327/484/262 330/461/262 331/454/262
f 324/482/263 333/485/263 325/445/263
f 332/474/266 320/469/266 333/485/266
f 319/451/267 331/454/267 330/461/267
f 328/486/268 316/478/268 329/471/268
f 323/463/269 311/457/269 310/477/269
f 306/487/270 317/466/270 328/486/270
f 290/453/271 314/479/271 292/465/271
f 298/462/272 332/474/272 324/482/272
f 287/488/273 310/477/273 313/476/273
f 307/472/233 316/478/233 294/489/233
f 288/470/201 312/481/201 286/456/201
f 305/459/274 328/486/274 327/484/274
f 296/490/275 323/463/275 310/477/275
f 299/446/232 333/485/232 301/468/232
f 294/489/232 315/480/232 293/450/232
f 297/458/202 322/483/202 308/444/202
f 287/488/276 321/491/276 289/473/276
f 197/277/195 203/325/195 200/278/195
f 229/283/196 198/348/196 196/284/196
f 205/286/100 209/330/100 206/287/100
f 302/290/197 255/369/197 240/291/197
f 211/293/198 215/335/198 212/294/198
f 296/297/32 295/363/32 306/298/32
f 217/300/199 221/340/199 218/301/199
f 228/304/32 296/492/32 287/305/32
f 223/307/146 227/345/146 224/308/146
f 291/292/200 240/291/200 235/310/200
f 286/313/201 234/396/201 243/314/201
f 308/316/202 245/380/202 230/317/202
f 200/278/277 202/324/277 195/319/277
f 203/325/278 197/277/278 199/322/278
f 198/348/170 197/493/170 194/349/170
f 201/288/217 200/278/217 203/325/217
f 206/287/218 208/329/218 202/350/218
f 205/286/219 204/494/219 210/331/219
f 207/295/220 206/287/220 209/330/220
f 207/295/279 212/294/279 214/334/279
f 211/293/280 210/379/280 216/336/280
f 213/302/122 212/294/122 215/335/122
f 218/301/281 220/339/281 214/352/281
f 221/340/282 217/300/282 216/353/282
f 219/309/225 218/301/225 221/340/225
f 224/308/226 226/344/226 220/354/226
f 223/307/227 222/495/227 228/346/227
f 225/285/228 224/308/228 227/345/228
f 225/285/283 196/284/283 195/355/283
f 229/283/284 228/304/284 199/306/284
f 288/315/231 243/314/231 256/360/231
f 222/341/32 216/353/32 292/362/32
f 293/311/232 235/310/232 239/364/232
f 294/365/233 239/364/233 252/366/233
f 304/368/234 251/373/234 255/369/234
f 301/361/232 256/360/232 246/370/232
f 307/367/201 252/366/201 251/373/201
f 290/374/285 289/390/285 300/375/285
f 238/376/32 237/397/32 249/377/32
f 210/379/286 290/374/286 292/362/286
f 299/371/200 246/370/200 245/380/200
f 241/384/32 254/399/32 250/385/32
f 242/387/32 233/395/32 247/388/32
f 210/331/32 204/494/32 289/390/32
f 231/391/32 244/398/32 248/392/32
f 228/346/32 222/495/32 295/363/32
f 232/393/241 234/396/241 230/317/241
f 237/397/242 238/376/242 239/364/242
f 236/386/243 235/310/243 240/291/243
f 233/395/244 242/387/244 243/314/244
f 246/370/243 248/392/243 244/398/243
f 251/373/244 252/366/244 253/378/244
f 251/373/241 250/385/241 254/399/241
f 246/370/242 256/360/242 257/389/242
f 248/392/32 247/388/32 233/395/32
f 256/360/245 243/314/245 242/387/245
f 241/384/287 240/291/287 255/369/287
f 237/397/32 236/386/32 250/385/32
f 252/366/247 239/364/247 238/376/247
f 245/380/288 244/398/288 231/391/288
f 204/326/32 199/322/32 287/400/32
f 271/402/249 258/404/249 259/405/249
f 259/405/100 260/406/100 261/409/100
f 266/408/250 262/411/250 263/412/250
f 263/412/146 264/413/146 265/427/146
f 265/427/251 267/428/251 268/417/251
f 272/407/100 281/430/100 285/415/100
f 261/409/252 273/429/252 272/407/252
f 269/410/146 279/416/146 283/438/146
f 285/415/253 278/434/253 277/414/253
f 282/435/254 276/437/254 275/418/254
f 277/414/255 283/438/255 279/416/255
f 275/418/256 284/439/256 274/440/256
f 270/403/100 274/440/100 284/439/100
f 268/417/146 280/436/146 282/435/146
f 308/444/200 322/483/200 325/445/200
f 302/447/234 330/461/234 326/448/234
f 293/450/200 315/480/200 319/451/200
f 290/453/289 303/460/289 331/454/289
f 286/456/234 312/481/234 311/457/234
f 305/459/290 327/484/290 331/454/290
f 291/452/197 319/451/197 330/461/197
f 298/462/291 324/482/291 323/463/291
f 292/465/292 314/479/292 317/466/292
f 301/468/231 333/485/231 320/469/231
f 304/449/201 326/448/201 329/471/201
f 289/473/293 321/491/293 332/474/293
f 297/318/234 230/317/234 234/396/234
f 311/457/262 312/481/262 313/476/262
f 316/478/263 317/466/263 314/479/263
f 319/451/264 315/480/264 314/479/264
f 320/469/265 321/491/265 313/476/265
f 324/482/264 325/445/264 322/483/264
f 327/484/265 328/486/265 329/471/265
f 327/484/262 326/448/262 330/461/262
f 324/482/263 332/474/263 333/485/263
f 332/474/266 321/491/266 320/469/266
f 319/451/267 318/455/267 331/454/267
f 328/486/268 317/466/268 316/478/268
f 323/463/269 322/483/269 311/457/269
f 306/487/294 295/467/294 317/466/294
f 290/453/295 318/455/295 314/479/295
f 298/462/296 300/475/296 332/474/296
f 287/488/297 296/490/297 310/477/297
f 307/472/233 329/471/233 316/478/233
f 288/470/201 320/469/201 312/481/201
f 305/459/298 306/487/298 328/486/298
f 296/490/299 309/464/299 323/463/299
f 299/446/232 325/445/232 333/485/232
f 294/489/232 316/478/232 315/480/232
f 297/458/202 311/457/202 322/483/202
f 287/488/300 313/476/300 321/491/300
